<?xml version="1.0" encoding="UTF-8"?><svg id="Layer_2" xmlns="http://www.w3.org/2000/svg" viewBox="0 0 799.6 444.22"><defs><style>.cls-1{fill:#ffb3c7;}.cls-2{fill:#0a0b09;fill-rule:evenodd;}</style></defs><g id="Layer_1-2"><g><rect class="cls-1" width="799.6" height="444.22" rx="76.78" ry="76.78"/><path class="cls-2" d="M724.74,260.74c-10.46,0-18.94,8.56-18.94,19.11s8.48,19.11,18.94,19.11,18.94-8.56,18.94-19.11-8.48-19.11-18.94-19.11h0Zm-62.32-14.78c0-14.45-12.24-26.17-27.34-26.17s-27.35,11.71-27.35,26.17,12.24,26.17,27.35,26.17,27.34-11.72,27.34-26.17Zm.1-50.86h30.18v101.71h-30.18v-6.5c-8.53,5.87-18.82,9.32-29.92,9.32-29.37,0-53.19-24.03-53.19-53.67s23.81-53.67,53.19-53.67c11.1,0,21.39,3.45,29.92,9.32v-6.51h0Zm-241.52,13.25v-13.25h-30.9v101.71h30.97v-47.49c0-16.02,17.21-24.63,29.15-24.63,.12,0,.24,.01,.36,.01v-29.6c-12.26,0-23.53,5.3-29.58,13.24h0Zm-76.97,37.61c0-14.45-12.24-26.17-27.35-26.17s-27.35,11.71-27.35,26.17,12.24,26.17,27.35,26.17,27.35-11.72,27.35-26.17Zm.1-50.86h30.18v101.71h-30.18v-6.5c-8.53,5.87-18.82,9.32-29.92,9.32-29.38,0-53.19-24.03-53.19-53.67s23.81-53.67,53.19-53.67c11.1,0,21.39,3.45,29.92,9.32v-6.51h0Zm181.65-2.74c-12.06,0-23.47,3.78-31.09,14.2v-11.45h-30.05v101.71h30.42v-53.45c0-15.47,10.28-23.04,22.66-23.04,13.26,0,20.89,8,20.89,22.83v53.66h30.14v-64.68c0-23.67-18.65-39.77-42.96-39.77h0Zm-308.72,104.45h31.59V149.78h-31.59v147.04Zm-138.76,.04h33.45V149.75h-33.45v147.11Zm116.99-147.11c0,31.85-12.3,61.47-34.22,83.49l46.23,63.62h-41.31l-50.25-69.14,12.97-9.8c21.51-16.26,33.84-41.1,33.84-68.17h32.73Z"/></g></g></svg>